<svg width="178" height="56" viewBox="0 0 178 56" fill="none" xmlns="http://www.w3.org/2000/svg">
<path d="M24.0017 42.6673V53.5003L43 42.5269V31.6952L24.0017 42.6673Z" fill="#2947A9"/>
<path d="M32.5062 21.745L41.8802 16.3284L24.0017 6V16.8328L32.5062 21.745Z" fill="#0B267D"/>
<path d="M16.6182 24.9795V35.8158L24.0015 40.0796V29.2481L16.6182 24.9795Z" fill="#91A1D4"/>
<path d="M43 18.2701L24.0017 29.2481V40.0795L43 29.1061V18.2701Z" fill="#2947A9"/>
<path d="M6.13135 16.3221L15.4492 21.7703L24.0014 16.8328V6L6.13135 16.3221Z" fill="#2947A9"/>
<path d="M14.3772 37.1103V23.68L5 18.2651V42.5265L24.0014 53.5V42.6669L14.3772 37.1103Z" fill="#91A1D4"/>
<path d="M83.57 22.2L82.64 26.19H76.25L72.59 42H67.43L71.09 26.19H64.64L65.57 22.2H83.57ZM81.2188 42L86.1688 20.64H91.2688L89.0188 30.42L88.5088 31.14C88.7688 30.3 89.1588 29.55 89.6788 28.89C90.1988 28.23 90.8488 27.7 91.6288 27.3C92.4088 26.9 93.2988 26.7 94.2988 26.7C95.2988 26.7 96.1488 26.93 96.8488 27.39C97.5688 27.85 98.0688 28.5 98.3488 29.34C98.6488 30.18 98.6688 31.18 98.4088 32.34L96.1588 42H91.0588L93.1288 33.15C93.3088 32.35 93.2388 31.73 92.9188 31.29C92.5988 30.83 92.0788 30.6 91.3588 30.6C90.8188 30.6 90.3388 30.73 89.9188 30.99C89.5188 31.23 89.1688 31.6 88.8688 32.1C88.5888 32.58 88.3688 33.18 88.2088 33.9L86.3188 42H81.2188ZM107.96 42.27C106.48 42.27 105.18 41.99 104.06 41.43C102.94 40.85 102.07 40.05 101.45 39.03C100.83 38.01 100.52 36.82 100.52 35.46C100.52 33.78 100.86 32.29 101.54 30.99C102.24 29.67 103.22 28.63 104.48 27.87C105.76 27.11 107.28 26.73 109.04 26.73C110.5 26.73 111.74 27.01 112.76 27.57C113.8 28.11 114.59 28.88 115.13 29.88C115.67 30.88 115.94 32.06 115.94 33.42C115.94 33.8 115.92 34.2 115.88 34.62C115.84 35.04 115.76 35.45 115.64 35.85H103.82V33.09H112.31L110.9 33.87C110.98 33.59 111.03 33.35 111.05 33.15C111.07 32.95 111.08 32.76 111.08 32.58C111.08 32.06 110.99 31.63 110.81 31.29C110.63 30.95 110.38 30.7 110.06 30.54C109.74 30.36 109.36 30.27 108.92 30.27C108.2 30.27 107.6 30.44 107.12 30.78C106.66 31.12 106.29 31.57 106.01 32.13C105.73 32.67 105.53 33.26 105.41 33.9C105.31 34.54 105.26 35.16 105.26 35.76C105.26 36.4 105.38 36.94 105.62 37.38C105.88 37.82 106.22 38.16 106.64 38.4C107.08 38.62 107.59 38.73 108.17 38.73C108.89 38.73 109.47 38.57 109.91 38.25C110.35 37.91 110.69 37.49 110.93 36.99L115.13 38.64C114.79 39.4 114.26 40.05 113.54 40.59C112.84 41.13 112.01 41.55 111.05 41.85C110.11 42.13 109.08 42.27 107.96 42.27ZM119.151 42V22.2H128.781C131.221 22.22 133.021 22.69 134.181 23.61C135.341 24.51 135.921 25.82 135.921 27.54C135.921 28.66 135.591 29.63 134.931 30.45C134.271 31.25 133.261 31.76 131.901 31.98V32.01C133.421 32.21 134.551 32.74 135.291 33.6C136.051 34.44 136.431 35.46 136.431 36.66C136.431 38.36 135.831 39.68 134.631 40.62C133.431 41.54 131.631 42 129.231 42H119.151ZM124.131 38.37H128.361C129.301 38.37 130.001 38.18 130.461 37.8C130.921 37.42 131.151 36.87 131.151 36.15C131.151 35.45 130.921 34.92 130.461 34.56C130.001 34.18 129.301 33.99 128.361 33.99H124.131V38.37ZM124.131 30.3H127.881C129.721 30.3 130.641 29.58 130.641 28.14C130.641 26.7 129.721 25.98 127.881 25.98H124.131V30.3ZM146.439 26.7C148.019 26.7 149.399 27.01 150.579 27.63C151.779 28.23 152.709 29.12 153.369 30.3C154.049 31.46 154.389 32.86 154.389 34.5C154.389 36.14 154.049 37.55 153.369 38.73C152.709 39.89 151.779 40.78 150.579 41.4C149.399 42 148.019 42.3 146.439 42.3C144.899 42.3 143.529 42 142.329 41.4C141.129 40.78 140.189 39.89 139.509 38.73C138.849 37.55 138.519 36.14 138.519 34.5C138.519 32.86 138.849 31.46 139.509 30.3C140.189 29.12 141.129 28.23 142.329 27.63C143.529 27.01 144.899 26.7 146.439 26.7ZM146.439 30.33C145.859 30.33 145.359 30.47 144.939 30.75C144.519 31.03 144.199 31.48 143.979 32.1C143.759 32.72 143.649 33.52 143.649 34.5C143.649 35.48 143.759 36.28 143.979 36.9C144.199 37.5 144.519 37.95 144.939 38.25C145.359 38.53 145.859 38.67 146.439 38.67C147.039 38.67 147.549 38.53 147.969 38.25C148.389 37.95 148.709 37.5 148.929 36.9C149.149 36.28 149.259 35.48 149.259 34.5C149.259 33.52 149.149 32.72 148.929 32.1C148.709 31.48 148.389 31.03 147.969 30.75C147.549 30.47 147.039 30.33 146.439 30.33ZM160.847 27L164.507 33.75L166.187 33.6L172.097 42H166.247L162.467 35.16H160.697L154.967 27H160.847ZM171.977 27L166.307 35.1L164.417 34.98L160.487 42H154.757L160.787 33.54L162.527 33.78L166.247 27H171.977Z" fill="#2947A9"/>
</svg>
