<svg width="30" height="30" viewBox="0 0 30 30" fill="none" xmlns="http://www.w3.org/2000/svg">
<g clip-path="url(#clip0_121_393)">
<rect x="0.57843" y="12.7521" width="17.0738" height="17.0738" fill="#7595FD"/>
<path d="M24.3598 4.21534C23.5513 4.21599 22.7762 4.53742 22.2046 5.10905C21.6329 5.68069 21.3115 6.45581 21.3109 7.26423C21.3109 7.69961 21.406 8.11304 21.5719 8.48988L19.1876 11.1717C18.3777 10.6126 17.4168 10.3132 16.4327 10.3131C15.5302 10.3131 14.696 10.5765 13.9704 11.0034L11.1971 8.23133L11.1691 8.25938C11.4081 7.774 11.5544 7.23374 11.5544 6.65445C11.5544 5.93084 11.3399 5.22347 10.9378 4.62181C10.5358 4.02014 9.96443 3.5512 9.29589 3.27429C8.62736 2.99737 7.89173 2.92492 7.18202 3.06609C6.4723 3.20726 5.82039 3.55571 5.30872 4.06739C4.79705 4.57906 4.44859 5.23097 4.30742 5.94068C4.16625 6.65039 4.23871 7.38603 4.51562 8.05456C4.79254 8.72309 5.26148 9.2945 5.86314 9.69652C6.4648 10.0985 7.17217 10.3131 7.89578 10.3131C8.47507 10.3131 9.01412 10.1668 9.50072 9.92773L9.47267 9.95578L12.2459 12.7278C11.7979 13.4718 11.559 14.3229 11.5544 15.1913C11.5544 16.4072 12.0179 17.5073 12.7557 18.3634L9.61292 21.505C9.26067 21.364 8.88497 21.2907 8.50556 21.2891C6.82502 21.2891 5.45668 22.6562 5.45668 24.338C5.45668 26.0197 6.82502 27.3869 8.50556 27.3869C10.1861 27.3869 11.5544 26.0197 11.5544 24.338C11.5544 23.9465 11.474 23.5745 11.3386 23.2294L14.7997 19.7683C15.3131 19.9512 15.857 20.0695 16.4327 20.0695C19.123 20.0695 21.3109 17.8817 21.3109 15.1913C21.3109 14.4157 21.1121 13.6925 20.7889 13.04L23.3707 10.1338C23.6829 10.2412 24.0122 10.3131 24.3598 10.3131C26.0415 10.3131 27.4086 8.94599 27.4086 7.26423C27.4086 5.58246 26.0415 4.21534 24.3598 4.21534ZM16.4327 17.6304C15.0875 17.6304 13.9936 16.5365 13.9936 15.1913C13.9936 13.8462 15.0875 12.7522 16.4327 12.7522C17.7778 12.7522 18.8718 13.8462 18.8718 15.1913C18.8718 16.5365 17.7778 17.6304 16.4327 17.6304Z" fill="white"/>
</g>
<defs>
<clipPath id="clip0_121_393">
<rect width="29.2693" height="29.2693" fill="white" transform="translate(0.57843 0.556641)"/>
</clipPath>
</defs>
</svg>
